<svg width="132" height="149" viewBox="0 0 132 149" fill="none" xmlns="http://www.w3.org/2000/svg">
<path d="M21.5945 69.4182C24.1796 57.3216 35.6734 49.7916 48.17 51.9582C35.8999 50.2199 24.8315 57.7666 22.7046 69.6199L21.5945 69.4182Z" fill="#6EC0CC"/>
<mask id="mask0_103_90" style="mask-type:luminance" maskUnits="userSpaceOnUse" x="20" y="50" width="31" height="16">
<path d="M20.6659 50.8667H50.1067V65.8H20.6659V50.8667Z" fill="white"/>
</mask>
<g mask="url(#mask0_103_90)">
<path d="M20.7437 65.1933C25.4695 53.7133 38.1443 48.2216 50.0617 52.4466C38.2912 48.6816 26.0297 54.2599 21.8019 65.5783L20.7437 65.1933Z" fill="#6EC0CC"/>
</g>
<mask id="mask1_103_90" style="mask-type:luminance" maskUnits="userSpaceOnUse" x="20" y="50" width="32" height="12">
<path d="M20.6659 50.0134H51.8773V61.5334H20.6659V50.0134Z" fill="white"/>
</mask>
<g mask="url(#mask1_103_90)">
<path d="M20.668 60.8901C27.3892 50.3768 40.8612 47.0901 51.8362 53.2451C40.9234 47.5668 27.844 51.0084 21.6398 61.4468L20.668 60.8901Z" fill="#6EC0CC"/>
</g>
<path d="M21.3679 56.6399C29.8823 47.4099 43.7416 46.4282 53.4405 54.3265C43.7157 46.9082 30.2143 48.1082 22.2239 57.3499L21.3679 56.6399Z" fill="#6EC0CC"/>
<path d="M22.8239 52.5716C32.8703 44.9066 46.695 46.2599 54.8238 55.6616C46.5843 46.7283 33.0726 45.6516 23.538 53.4149L22.8239 52.5716Z" fill="#6EC0CC"/>
<path d="M24.9888 48.8082C36.2647 42.9416 49.6363 46.5882 55.9478 57.2082C49.4426 47.0316 36.3304 43.7082 25.5421 49.7582L24.9888 48.8082Z" fill="#6EC0CC"/>
<path d="M27.8004 45.465C39.9616 41.575 52.4722 47.4033 56.7761 58.9183C52.2024 47.8083 39.8873 42.34 28.1739 46.4933L27.8004 45.465Z" fill="#6EC0CC"/>
<path d="M31.1705 42.6432C43.8488 40.8482 55.1195 48.6816 57.2827 60.7416C54.7806 49.0332 43.6378 41.5882 31.3538 43.7182L31.1705 42.6432Z" fill="#6EC0CC"/>
<path d="M34.9989 40.4282C47.8069 40.7816 57.4954 50.3832 57.4522 62.6216C57.0977 50.6732 47.4662 41.4766 34.9851 41.5166L34.9989 40.4282Z" fill="#6EC0CC"/>
<path d="M39.168 38.8867C51.7183 41.3801 59.5289 52.4567 57.2827 64.5017C59.0845 52.6751 51.2566 42.0067 38.957 39.9567L39.168 38.8867Z" fill="#6EC0CC"/>
<path d="M43.5514 38.0684C55.4619 42.6217 61.1578 54.8384 56.7761 66.325C60.6823 54.98 54.8947 43.1634 43.152 39.0867L43.5514 38.0684Z" fill="#6EC0CC"/>
<mask id="mask2_103_90" style="mask-type:luminance" maskUnits="userSpaceOnUse" x="47" y="37" width="13" height="32">
<path d="M47.0081 37.9934H59.4027V68.3601H47.0081V37.9934Z" fill="white"/>
</mask>
<g mask="url(#mask2_103_90)">
<path d="M48.0161 37.9934C58.9237 44.4734 62.3336 57.4567 55.9478 68.0351C61.8391 57.5167 58.2684 44.9101 47.4386 38.9301L48.0161 37.9934Z" fill="#6EC0CC"/>
</g>
<path d="M52.4255 38.6685C61.9999 46.8751 63.0201 60.2335 54.8238 69.5818C62.5204 60.2085 61.2754 47.1968 51.6871 39.4951L52.4255 38.6685Z" fill="#6EC0CC"/>
<path d="M56.6463 40.0718C64.597 49.7551 63.1947 63.0818 53.4404 70.9168C62.707 62.9734 63.8258 49.9501 55.7713 40.7618L56.6463 40.0718Z" fill="#6EC0CC"/>
<path d="M60.5508 42.1599C66.6358 53.0266 62.8541 65.9149 51.8358 71.9982C62.3941 65.7282 65.8421 53.0899 59.5652 42.6916L60.5508 42.1599Z" fill="#6EC0CC"/>
<path d="M64.0195 44.8684C68.0554 56.5901 62.0067 68.6501 50.0616 72.7967C61.5883 68.3884 67.2599 56.5184 62.9526 45.2284L64.0195 44.8684Z" fill="#6EC0CC"/>
<path d="M66.9471 48.1184C68.8094 60.3367 60.6823 71.2001 48.17 73.2851C60.3157 70.8734 68.0399 60.1334 65.8318 48.2934L66.9471 48.1184Z" fill="#6EC0CC"/>
<path d="M69.2451 51.8068C68.8785 64.1518 58.9168 73.4918 46.2195 73.4501C58.6159 73.1068 68.1574 63.8235 68.1142 51.7935L69.2451 51.8068Z" fill="#6EC0CC"/>
<path d="M70.8429 55.825C68.2578 67.9216 56.7657 75.4516 44.269 73.285C56.5375 75.0233 67.6076 67.4766 69.7328 55.6233L70.8429 55.825Z" fill="#6EC0CC"/>
<mask id="mask3_103_90" style="mask-type:luminance" maskUnits="userSpaceOnUse" x="42" y="59" width="30" height="16">
<path d="M42.1387 59.3999H71.7939V74.3332H42.1387V59.3999Z" fill="white"/>
</mask>
<g mask="url(#mask3_103_90)">
<path d="M71.6936 60.0498C66.9678 71.5298 54.293 77.0215 42.3773 72.7965C54.1478 76.5615 66.4076 70.9831 70.6371 59.6648L71.6936 60.0498Z" fill="#6EC0CC"/>
</g>
<mask id="mask4_103_90" style="mask-type:luminance" maskUnits="userSpaceOnUse" x="40" y="63" width="32" height="13">
<path d="M40.368 63.6667H71.7939V75.1867H40.368V63.6667Z" fill="white"/>
</mask>
<g mask="url(#mask4_103_90)">
<path d="M71.7697 64.3535C65.0484 74.8669 51.5765 78.1535 40.6014 71.9985C51.5159 77.6769 64.5936 74.2352 70.7979 63.7969L71.7697 64.3535Z" fill="#6EC0CC"/>
</g>
<path d="M71.0694 68.6033C62.5567 77.8333 48.6974 78.815 38.9985 70.9166C48.7216 78.335 62.223 77.135 70.2135 67.8933L71.0694 68.6033Z" fill="#6EC0CC"/>
<path d="M69.6151 72.6715C59.5669 80.3365 45.7422 78.9832 37.6134 69.5815C45.8529 78.5149 59.3646 79.5915 68.8992 71.8282L69.6151 72.6715Z" fill="#6EC0CC"/>
<path d="M67.4485 76.4349C56.1726 82.3016 42.801 78.6549 36.4895 68.0349C42.9964 78.2116 56.1086 81.5349 66.8952 75.4849L67.4485 76.4349Z" fill="#6EC0CC"/>
<path d="M64.6369 79.7783C52.4757 83.6683 39.9651 77.84 35.663 66.325C40.2366 77.435 52.55 82.9033 64.2651 78.75L64.6369 79.7783Z" fill="#6EC0CC"/>
<path d="M61.2667 82.6C48.5901 84.395 37.3177 76.5617 35.1562 64.5017C37.6584 76.21 48.8011 83.655 61.0851 81.525L61.2667 82.6Z" fill="#6EC0CC"/>
<path d="M57.4384 84.8149C44.6304 84.4616 34.9419 74.8599 34.9851 62.6216C35.3396 74.5699 44.9711 83.7666 57.4539 83.7266L57.4384 84.8149Z" fill="#6EC0CC"/>
<path d="M53.2694 86.3567C40.7208 83.8634 32.9084 72.7867 35.1563 60.7417C33.3528 72.5684 41.1808 83.2367 53.4803 85.2867L53.2694 86.3567Z" fill="#6EC0CC"/>
<mask id="mask5_103_90" style="mask-type:luminance" maskUnits="userSpaceOnUse" x="34" y="58" width="16" height="30">
<path d="M34.1707 58.5466H49.664V87.2733H34.1707V58.5466Z" fill="white"/>
</mask>
<g mask="url(#mask5_103_90)">
<path d="M48.8873 87.1749C36.9768 82.6215 31.2792 70.4049 35.6626 58.9182C31.7565 70.2632 37.544 82.0799 49.2868 86.1565L48.8873 87.1749Z" fill="#6EC0CC"/>
</g>
<mask id="mask6_103_90" style="mask-type:luminance" maskUnits="userSpaceOnUse" x="32" y="56" width="14" height="32">
<path d="M32.8427 56.8401H45.2373V87.2734H32.8427V56.8401Z" fill="white"/>
</mask>
<g mask="url(#mask6_103_90)">
<path d="M44.4229 87.2485C33.5136 80.7702 30.1037 67.7868 36.4895 57.2085C30.5999 67.7268 34.1707 80.3335 45.0004 86.3135L44.4229 87.2485Z" fill="#6EC0CC"/>
</g>
<path d="M40.0135 86.575C30.4374 78.3683 29.4189 65.01 37.6134 55.6616C29.9169 65.035 31.1619 78.0466 40.7501 85.7483L40.0135 86.575Z" fill="#6EC0CC"/>
<path d="M35.7926 85.1717C27.8402 75.4883 29.2443 62.1617 38.9985 54.3267C29.7302 62.27 28.6114 75.2933 36.6676 84.4817L35.7926 85.1717Z" fill="#6EC0CC"/>
<path d="M31.8881 83.0835C25.8015 72.2168 29.5849 59.3285 40.6014 53.2451C30.0431 59.5151 26.5969 72.1535 32.8738 82.5518L31.8881 83.0835Z" fill="#6EC0CC"/>
<path d="M28.4195 80.3751C24.3836 68.6534 30.4305 56.5934 42.3774 52.4468C30.849 56.8551 25.1773 68.7251 29.4864 80.0151L28.4195 80.3751Z" fill="#6EC0CC"/>
<path d="M25.4903 77.1249C23.628 64.9066 31.7568 54.0433 44.269 51.9583C32.1216 54.3699 24.3975 65.1099 26.6056 76.9499L25.4903 77.1249Z" fill="#6EC0CC"/>
<path d="M23.1921 73.4367C23.5605 61.0917 33.5222 51.7517 46.2194 51.7934C33.8231 52.1367 24.2815 61.42 24.323 73.45L23.1921 73.4367Z" fill="#6EC0CC"/>
<path d="M14.5307 99.957L13.277 92.252C13.2459 92.032 13.0782 91.9353 12.8776 91.9353H10.877C10.6988 91.9353 10.6383 92.0803 10.6885 92.3103L13.4551 104.879C13.5157 105.109 13.635 105.214 13.8442 105.214H15.4264C15.6252 105.214 15.7446 105.109 15.8051 104.879L18.5717 92.2903C18.6219 92.0803 18.5717 91.9353 18.3833 91.9353H16.3826C16.1924 91.9353 16.0143 92.032 15.9832 92.252L14.7399 99.957L14.6292 101.079L14.5307 99.957Z" fill="white"/>
<path d="M21.9851 92.3103C21.9851 92.0803 21.8849 91.9353 21.6566 91.9353H19.6646C19.4571 91.9353 19.3361 92.0803 19.3361 92.3103V104.849C19.3361 105.079 19.4364 105.214 19.6646 105.214H21.6566C21.8849 105.214 21.9851 105.079 21.9851 104.849V92.3103Z" fill="white"/>
<path d="M27.7164 95.7836C27.7164 96.052 27.7562 96.147 28.0052 96.147H29.7879C30.1061 96.147 30.1753 96.052 30.1753 95.7836V95.237C30.1753 93.1153 28.702 91.7336 26.6426 91.7336C25.2489 91.7336 23.1082 92.6836 23.1082 95.1786C23.1082 97.3753 24.0436 98.0086 26.1238 99.6403C27.3481 100.599 27.8668 101.03 27.8668 101.962C27.8668 102.662 27.3584 103.104 26.7325 103.104C26.2241 103.104 25.5964 102.795 25.5964 101.837V101.405C25.5964 101.117 25.5376 101.012 25.2592 101.012H23.4471C23.1687 101.012 23.1082 101.145 23.1082 101.472V101.98C23.1082 103.784 24.3134 105.425 26.7117 105.425C28.9112 105.425 30.3845 103.89 30.3845 102.095C30.3845 99.6686 28.9009 98.622 27.0403 97.232C26.1549 96.5703 25.567 96.157 25.567 95.2453C25.567 94.372 26.1446 94.037 26.6426 94.037C27.3584 94.037 27.7164 94.5836 27.7164 95.2453V95.7836Z" fill="white"/>
<path d="M34.037 92.3103C34.037 92.0803 33.9367 91.9353 33.7085 91.9353H31.7165C31.509 91.9353 31.3879 92.0803 31.3879 92.3103V104.849C31.3879 105.079 31.4882 105.214 31.7165 105.214H33.7085C33.9367 105.214 34.037 105.079 34.037 104.849V92.3103Z" fill="white"/>
<path d="M42.6958 95.0636C42.6958 92.972 40.9632 91.7336 38.9625 91.7336C36.9723 91.7336 35.2604 92.982 35.2604 95.0636V102.095C35.2604 104.13 36.9723 105.425 38.9625 105.425C40.9632 105.425 42.6958 104.177 42.6958 102.095V95.0636ZM38.9833 94.037C39.649 94.037 40.0484 94.5936 40.0484 95.207V102.019C40.0484 102.624 39.649 103.112 38.9625 103.112C38.2864 103.112 37.9077 102.565 37.9077 101.962V95.207C37.9077 94.5936 38.3054 94.037 38.9833 94.037Z" fill="white"/>
<path d="M50.9349 105.213C51.1545 105.213 51.2548 105.022 51.2548 104.83V95.0534C51.2548 93.2118 49.5221 91.7251 47.5319 91.7251C45.5399 91.7251 43.8193 93.2118 43.8193 95.0534V104.84C43.8193 105.04 43.9283 105.213 44.077 105.213H46.1779C46.4062 105.213 46.4771 105.05 46.4771 104.84V95.1968C46.4771 94.5934 46.8644 94.0468 47.5405 94.0468C48.208 94.0468 48.597 94.5934 48.597 95.1968V104.83C48.597 105.032 48.7163 105.213 48.9152 105.213H50.9349Z" fill="white"/>
<path d="M58.525 94.267C58.6944 94.267 58.8138 94.152 58.8138 93.922V92.282C58.8138 92.0503 58.6944 91.9353 58.525 91.9353H52.1651C51.9957 91.9353 51.8763 92.0603 51.8763 92.2903V93.922C51.8763 94.152 51.9957 94.267 52.1651 94.267H54.0171V104.879C54.0171 105.099 54.1364 105.214 54.3058 105.214H56.386C56.5451 105.214 56.6748 105.099 56.6748 104.879V94.267H58.525Z" fill="#6EC0CC"/>
<path d="M62.1584 102.902V99.6486H65.0634C65.2536 99.6486 65.3833 99.5536 65.3833 99.3236V97.682C65.3833 97.442 65.2328 97.347 65.0634 97.347H62.1584V94.267H65.8C65.9798 94.267 66.0801 94.152 66.0801 93.922V92.2903C66.0801 92.0503 65.9798 91.9353 65.8 91.9353H59.8482C59.639 91.9353 59.5093 92.0803 59.5093 92.3103V104.849C59.5093 105.079 59.6199 105.214 59.8482 105.214H65.8501C66.0092 105.214 66.1389 105.109 66.1389 104.879V103.227C66.1389 103.007 66.0092 102.902 65.8501 102.902H62.1584Z" fill="#6EC0CC"/>
<path d="M74.1014 95.112C74.1014 93.4236 72.9965 91.7336 70.5774 91.7336C68.4073 91.7336 66.8649 93.1636 66.8649 95.0636V102.095C66.8649 104.177 68.5767 105.425 70.5774 105.425C72.5677 105.425 74.1602 104.177 74.1602 102.095V100.79C74.1602 100.504 74.0617 100.435 73.8317 100.435H71.9711C71.7411 100.435 71.672 100.522 71.672 100.81V101.952C71.672 102.557 71.3244 103.112 70.5964 103.112C69.9099 103.112 69.5122 102.557 69.5122 101.952V95.1686C69.5122 94.5653 69.9497 94.037 70.5964 94.037C71.2535 94.037 71.6218 94.622 71.6218 95.1886V96.0803C71.6218 96.3486 71.6927 96.4636 71.9313 96.4636H73.7815C74.0409 96.4636 74.1014 96.3386 74.1014 96.042V95.112Z" fill="#6EC0CC"/>
<path d="M80.4304 91.9353C80.2004 91.9353 80.0915 92.1086 80.0915 92.3103V97.2603H77.9024V92.3103C77.9024 92.0803 77.8021 91.9353 77.5738 91.9353H75.5818C75.364 91.9353 75.2533 92.0803 75.2533 92.3103V104.849C75.2533 105.079 75.3536 105.214 75.5818 105.214H77.5738C77.8021 105.214 77.9024 105.079 77.9024 104.849V99.572H80.0915V104.849C80.0915 105.079 80.2108 105.214 80.4304 105.214H82.3809C82.6403 105.214 82.7389 105.079 82.7389 104.849V92.3003C82.7389 92.022 82.5798 91.9353 82.4103 91.9353H80.4304Z" fill="#6EC0CC"/>
</svg>
